<svg width="40" height="42" viewBox="0 0 40 42" fill="none" xmlns="http://www.w3.org/2000/svg">
<path d="M33.7153 0L40 13.125H32.9792L28.1736 0H33.7153ZM24.8264 0L29.6319 13.125H10.3681L15.1736 0H24.8264ZM6.28472 0H11.8264L7.02083 13.125H0L6.28472 0ZM0 15.75H6.99306L15.5347 36.3973C15.6389 36.6516 15.3472 36.8812 15.1875 36.668L0 15.75ZM10.2917 15.75H29.7083L20.1944 41.8523C20.125 42.0492 19.8819 42.0492 19.8125 41.8523L10.2917 15.75ZM24.4653 36.3973L33.0069 15.75H40L24.8125 36.6598C24.6528 36.8812 24.3611 36.6516 24.4653 36.3973Z" fill="#3B79D7" fill-opacity="0.52"/>
</svg>
