<svg width="21" height="21" viewBox="0 0 21 21" fill="none" xmlns="http://www.w3.org/2000/svg">
<g clip-path="url(#clip0)">
<path d="M18.8981 18.0122C21.9944 14.4409 21.6144 9.05537 18.1211 5.92969C19.9154 12.2171 15.1709 18.4977 8.63411 18.4977C8.50827 18.4977 9.26772 18.5021 6.27637 18.4837C7.91244 20.1121 10.0915 20.9996 12.3664 20.9996C12.3723 20.9996 20.3827 20.9587 20.3874 20.9586C20.9343 20.956 21.2067 20.2905 20.8166 19.9055L18.8981 18.0122Z" fill="white"/>
<path d="M8.6338 17.2676C13.3942 17.2676 17.2671 13.3945 17.2671 8.63379C17.2671 3.87311 13.3943 0 8.6338 0C3.87332 0 0.000500285 3.87311 0.000500285 8.63379C0.000500285 10.7296 0.742391 12.7118 2.10202 14.2801L0.183553 16.1734C-0.205275 16.5572 0.0640745 17.2239 0.612781 17.2266C0.617006 17.2266 8.62961 17.2676 8.6338 17.2676ZM4.9631 5.57812H12.3455C12.6853 5.57812 12.9607 5.85359 12.9607 6.19336C12.9607 6.53313 12.6853 6.80859 12.3455 6.80859H4.9631C4.62333 6.80859 4.34791 6.53313 4.34791 6.19336C4.34791 5.85359 4.62337 5.57812 4.9631 5.57812ZM4.9631 8.03906H12.3455C12.6853 8.03906 12.9607 8.31452 12.9607 8.6543C12.9607 8.99407 12.6853 9.26953 12.3455 9.26953H4.9631C4.62333 9.26953 4.34791 8.99407 4.34791 8.6543C4.34791 8.31452 4.62337 8.03906 4.9631 8.03906ZM4.34791 11.1152C4.34791 10.7755 4.62333 10.5 4.9631 10.5H12.3455C12.6853 10.5 12.9607 10.7755 12.9607 11.1152C12.9607 11.455 12.6853 11.7305 12.3455 11.7305H4.9631C4.62337 11.7305 4.34791 11.455 4.34791 11.1152Z" fill="white"/>
</g>
<defs>
<clipPath id="clip0">
<rect width="21" height="21" fill="white"/>
</clipPath>
</defs>
</svg>
