<svg width="26" height="26" viewBox="0 0 26 26" fill="none" xmlns="http://www.w3.org/2000/svg">
<path d="M24.7508 16.0315L22.5875 14.7823C22.8059 13.6041 22.8059 12.3956 22.5875 11.2174L24.7508 9.96821C24.9996 9.82602 25.1113 9.53149 25.0301 9.25727C24.4664 7.44946 23.5066 5.81431 22.2524 4.45337C22.0594 4.24516 21.7445 4.19438 21.5008 4.33657L19.3375 5.58579C18.4285 4.80376 17.3824 4.19946 16.25 3.80337V1.31001C16.25 1.02563 16.052 0.776805 15.7727 0.715868C13.909 0.299462 11.9996 0.319774 10.2274 0.715868C9.94805 0.776805 9.75001 1.02563 9.75001 1.31001V3.80845C8.62266 4.20962 7.57657 4.81391 6.66251 5.59087L4.5043 4.34165C4.25548 4.19946 3.94571 4.24517 3.75274 4.45845C2.49844 5.81431 1.53868 7.44946 0.975006 9.26235C0.888678 9.53657 1.00548 9.8311 1.2543 9.97329L3.41758 11.2225C3.19923 12.4006 3.19923 13.6092 3.41758 14.7874L1.2543 16.0366C1.00548 16.1788 0.893756 16.4733 0.975006 16.7475C1.53868 18.5553 2.49844 20.1905 3.75274 21.5514C3.94571 21.7596 4.26055 21.8104 4.5043 21.6682L6.66758 20.419C7.57657 21.201 8.62266 21.8053 9.75509 22.2014V24.6999C9.75509 24.9842 9.95313 25.2331 10.2324 25.294C12.0961 25.7104 14.0055 25.6901 15.7777 25.294C16.057 25.2331 16.2551 24.9842 16.2551 24.6999V22.2014C17.3824 21.8002 18.4285 21.1959 19.3426 20.419L21.5059 21.6682C21.7547 21.8104 22.0645 21.7647 22.2574 21.5514C23.5117 20.1956 24.4715 18.5604 25.0352 16.7475C25.1113 16.4682 24.9996 16.1737 24.7508 16.0315ZM13 17.0624C10.7606 17.0624 8.93751 15.2393 8.93751 12.9999C8.93751 10.7604 10.7606 8.93735 13 8.93735C15.2395 8.93735 17.0625 10.7604 17.0625 12.9999C17.0625 15.2393 15.2395 17.0624 13 17.0624Z" fill="black"/>
</svg>
