<svg width="30" height="22" viewBox="0 0 30 22" fill="none" xmlns="http://www.w3.org/2000/svg">
<path d="M22.2134 0.900046C23.5367 0.896794 24.8547 1.06499 26.1347 1.40042L26.1373 1.40109L26.1373 1.40113C26.4192 1.48306 26.6091 1.74622 26.5984 2.03936V2.56428H28.3302H28.3302H28.3302H28.3302H28.3302H28.3303H28.3303H28.3303H28.3303H28.3303H28.3304H28.3304H28.3304H28.3304H28.3305H28.3305H28.3305H28.3305H28.3305H28.3306H28.3306H28.3306H28.3306H28.3306H28.3307H28.3307H28.3307H28.3307H28.3307H28.3308H28.3308H28.3308H28.3308H28.3308H28.3309H28.3309H28.3309H28.3309H28.3309H28.331H28.331H28.331H28.331H28.3311H28.3311H28.3311H28.3311H28.3311H28.3312H28.3312H28.3312H28.3312H28.3312H28.3313H28.3313H28.3313H28.3313H28.3313H28.3314H28.3314H28.3314H28.3314H28.3314H28.3315H28.3315H28.3315H28.3315H28.3316H28.3316H28.3316H28.3316H28.3316H28.3317H28.3317H28.3317H28.3317H28.3317H28.3318H28.3318H28.3318H28.3318H28.3318H28.3319H28.3319H28.3319H28.3319H28.332H28.332H28.332H28.332H28.332H28.3321H28.3321H28.3321H28.3321H28.3321H28.3322H28.3322H28.3322H28.3322H28.3322H28.3323H28.3323H28.3323H28.3323H28.3324H28.3324H28.3324H28.3324H28.3324H28.3325H28.3325H28.3325H28.3325H28.3325H28.3326H28.3326H28.3326H28.3326H28.3326H28.3327H28.3327H28.3327H28.3327H28.3328H28.3328H28.3328H28.3328H28.3328H28.3329H28.3329H28.3329H28.3329H28.3329H28.333H28.333H28.333H28.333H28.3331H28.3331H28.3331H28.3331H28.3331H28.3332H28.3332H28.3332H28.3332H28.3332H28.3333H28.3333H28.3333H28.3333H28.3333H28.3334H28.3334H28.3334H28.3334H28.3335H28.3335H28.3335H28.3335H28.3335H28.3336H28.3336H28.3336H28.3336H28.3336H28.3337H28.3337H28.3337H28.3337H28.3338H28.3338H28.3338H28.3338H28.3338H28.3339H28.3339H28.3339H28.3339H28.3339H28.334H28.334H28.334H28.334H28.334H28.3341H28.3341H28.3341H28.3341H28.3342H28.3342H28.3342H28.3342H28.3342H28.3343H28.3343H28.3343H28.3343H28.3343H28.3344H28.3344H28.3344H28.3344H28.3345H28.3345H28.3345H28.3345H28.3345H28.3346H28.3346H28.3346H28.3346H28.3346H28.3347H28.3347H28.3347H28.3347H28.3348H28.3348H28.3348H28.3348H28.3348H28.3349H28.3349H28.3349H28.3349H28.3349H28.335H28.335H28.335H28.335H28.3351H28.3351H28.3351H28.3351H28.3351H28.3352H28.3352H28.3352H28.3352H28.3352H28.3353H28.3353H28.3353H28.3353H28.3354H28.3354H28.3354H28.3354H28.3354H28.3355H28.3355H28.3355H28.3355H28.3355H28.3356C28.6893 2.56428 28.9759 2.85099 28.9759 3.20461V20.4629V20.4635C28.9745 20.6909 28.8526 20.9006 28.6557 21.0142C28.4576 21.1286 28.2135 21.1286 28.0154 21.0142L27.9952 21.0025L27.9929 20.9991C27.9871 20.9956 27.9795 20.9912 27.9703 20.9859C27.964 20.9823 27.9568 20.9783 27.9489 20.974C27.9073 20.951 27.8453 20.9185 27.7636 20.8782C27.6002 20.7978 27.3592 20.6871 27.0468 20.5613C26.4221 20.3096 25.5126 19.998 24.3684 19.7474C22.0801 19.2462 18.8541 18.9893 15.0895 19.9439L15.077 19.947L15.0769 19.9462C15.0279 19.9521 14.9785 19.9524 14.9295 19.9469H14.8866H14.8056H14.7932L14.7811 19.9439C7.39009 18.0803 2.06499 20.903 1.85588 21.0139C1.85498 21.0143 1.85418 21.0148 1.85347 21.0151C1.75797 21.0691 1.65025 21.0975 1.54063 21.0979H1.54034C1.18671 21.0979 0.9 20.8111 0.9 20.4575V3.19921C0.9 2.84558 1.18671 2.55888 1.54034 2.55888H3.26127V2.03939C3.25055 1.74624 3.44049 1.48307 3.7224 1.40113L3.72495 1.40039L3.72496 1.40042C5.00495 1.06499 6.32302 0.896794 7.64625 0.900046M22.2134 0.900046C22.2135 0.900046 22.2135 0.900046 22.2136 0.900046V1.00005L22.2133 0.900047C22.2134 0.900046 22.2134 0.900046 22.2134 0.900046ZM22.2134 0.900046C20.0641 0.900065 17.1278 1.37798 14.9304 3.55935C12.7478 1.35645 9.78939 0.900064 7.64625 0.900046M7.64625 0.900046C7.64629 0.900046 7.64633 0.900046 7.64637 0.900047L7.64612 1.00005V0.900046C7.64617 0.900046 7.64621 0.900046 7.64625 0.900046ZM4.00855 17.9357L4.00851 17.9358C3.97428 17.941 3.93968 17.9434 3.90513 17.943C3.5517 17.939 3.26838 17.6494 3.27207 17.296M4.00855 17.9357L3.37207 17.2966M4.00855 17.9357C5.12165 17.7658 6.24543 17.6759 7.37137 17.6667L7.37229 17.6667C8.56968 17.646 9.76322 17.7799 10.9235 18.064M4.00855 17.9357L11.4816 18.1089M3.27207 17.296C3.27207 17.2958 3.27208 17.2956 3.27208 17.2954L3.37207 17.2966M3.27207 17.296V17.2966H3.37207M3.27207 17.296V3.84495M3.37207 17.2966V3.84495H3.27207M3.27207 3.84495V3.74495H2.18067V3.84495M3.27207 3.84495H2.18067M2.18067 3.84495H2.08067V19.4904C2.11397 19.4769 2.14731 19.4634 2.18067 19.45M2.18067 3.84495V19.45M2.18067 19.45V19.5578C5.12444 18.3724 8.30752 17.9104 11.463 18.2076C11.2841 18.1561 11.1042 18.1082 10.9235 18.064M2.18067 19.45C4.95811 18.3382 7.94624 17.8662 10.9235 18.064M10.9235 18.064C11.1096 18.0764 11.2957 18.0913 11.4816 18.1089M11.4816 18.1089C10.1467 17.7256 8.7612 17.5426 7.37055 17.5667C6.23983 17.5759 5.11128 17.6662 3.99346 17.8369L11.4816 18.1089ZM26.62 3.84495V17.2907V17.2912H26.52C26.5204 17.3203 26.5184 17.3495 26.514 17.3784L26.62 3.84495ZM26.62 3.84495H27.7113L27.69 19.4501C24.9078 18.3356 21.9142 17.8631 18.9317 18.0627C20.097 17.7781 21.2957 17.6446 22.4981 17.6667L22.4994 17.6667C23.6324 17.673 24.7634 17.7612 25.8837 17.9304L26.62 3.84495ZM7.37055 16.3915L7.37033 16.3915C6.42121 16.3936 5.47317 16.4523 4.53113 16.5674V2.54475C5.55105 2.32332 6.59158 2.2103 7.63542 2.20773C9.63635 2.20775 12.3735 2.66646 14.2787 4.79351L14.2947 18.0328C13.1137 17.3011 10.9342 16.3915 7.37055 16.3915ZM25.3232 2.54479V16.5671C24.3867 16.451 23.4441 16.3906 22.5004 16.3861H22.4999C18.9541 16.3861 16.7701 17.2972 15.5756 18.0288V4.79374C17.4811 2.68755 20.2187 2.20775 22.2188 2.20773C23.2626 2.21082 24.3032 2.32379 25.3232 2.54479Z" fill="white" stroke="white" stroke-width="0.2"/>
</svg>
