<svg width="23" height="25" viewBox="0 0 23 25" fill="none" xmlns="http://www.w3.org/2000/svg">
<path d="M0 8.78906V2.73438C0 2.08496 0.54933 1.5625 1.23214 1.5625H7.59821C7.93705 1.5625 8.21429 1.82617 8.21429 2.14844V4.10156C8.21429 4.42383 7.93705 4.6875 7.59821 4.6875H3.28571V8.78906C3.28571 9.11133 3.00848 9.375 2.66964 9.375H0.616071C0.277232 9.375 0 9.11133 0 8.78906ZM14.7857 2.14844V4.10156C14.7857 4.42383 15.0629 4.6875 15.4018 4.6875H19.7143V8.78906C19.7143 9.11133 19.9915 9.375 20.3304 9.375H22.3839C22.7228 9.375 23 9.11133 23 8.78906V2.73438C23 2.08496 22.4507 1.5625 21.7679 1.5625H15.4018C15.0629 1.5625 14.7857 1.82617 14.7857 2.14844ZM22.3839 15.625H20.3304C19.9915 15.625 19.7143 15.8887 19.7143 16.2109V20.3125H15.4018C15.0629 20.3125 14.7857 20.5762 14.7857 20.8984V22.8516C14.7857 23.1738 15.0629 23.4375 15.4018 23.4375H21.7679C22.4507 23.4375 23 22.915 23 22.2656V16.2109C23 15.8887 22.7228 15.625 22.3839 15.625ZM8.21429 22.8516V20.8984C8.21429 20.5762 7.93705 20.3125 7.59821 20.3125H3.28571V16.2109C3.28571 15.8887 3.00848 15.625 2.66964 15.625H0.616071C0.277232 15.625 0 15.8887 0 16.2109V22.2656C0 22.915 0.54933 23.4375 1.23214 23.4375H7.59821C7.93705 23.4375 8.21429 23.1738 8.21429 22.8516Z" fill="black"/>
</svg>
