<svg width="27" height="21" viewBox="0 0 27 21" fill="none" xmlns="http://www.w3.org/2000/svg">
<path d="M13.142 5.44795L4.50036 12.5667V20.2499C4.50036 20.4489 4.57937 20.6396 4.72001 20.7803C4.86065 20.921 5.0514 21 5.2503 21L10.5027 20.9864C10.701 20.9854 10.8907 20.9059 11.0306 20.7654C11.1704 20.6248 11.2489 20.4346 11.2489 20.2363V15.7494C11.2489 15.5505 11.3279 15.3597 11.4686 15.219C11.6092 15.0784 11.7999 14.9993 11.9988 14.9993H14.9986C15.1975 14.9993 15.3883 15.0784 15.5289 15.219C15.6695 15.3597 15.7486 15.5505 15.7486 15.7494V20.233C15.7482 20.3317 15.7674 20.4295 15.805 20.5208C15.8425 20.6121 15.8977 20.695 15.9674 20.7649C16.037 20.8348 16.1198 20.8903 16.211 20.9281C16.3021 20.966 16.3998 20.9855 16.4985 20.9855L21.749 21C21.9479 21 22.1387 20.921 22.2793 20.7803C22.42 20.6396 22.499 20.4489 22.499 20.2499V12.5616L13.8592 5.44795C13.7576 5.36606 13.6311 5.32141 13.5006 5.32141C13.3701 5.32141 13.2436 5.36606 13.142 5.44795ZM26.7924 10.2865L22.8739 7.05594V0.562563C22.8739 0.413362 22.8147 0.270272 22.7092 0.164771C22.6037 0.0592699 22.4607 0 22.3115 0H19.6867C19.5375 0 19.3944 0.0592699 19.289 0.164771C19.1835 0.270272 19.1242 0.413362 19.1242 0.562563V3.96654L14.9278 0.513339C14.5251 0.181886 14.0198 0.00066258 13.4983 0.00066258C12.9767 0.00066258 12.4714 0.181886 12.0687 0.513339L0.204124 10.2865C0.14717 10.3335 0.100049 10.3914 0.065454 10.4567C0.0308591 10.522 0.00946838 10.5935 0.00250394 10.6671C-0.00446049 10.7406 0.00313788 10.8149 0.0248649 10.8855C0.0465919 10.9561 0.0820218 11.0218 0.12913 11.0787L1.32435 12.532C1.37133 12.5892 1.42912 12.6365 1.4944 12.6712C1.55968 12.706 1.63118 12.7276 1.7048 12.7347C1.77842 12.7418 1.85272 12.7343 1.92344 12.7126C1.99416 12.6909 2.05992 12.6555 2.11695 12.6084L13.142 3.52586C13.2436 3.44397 13.3701 3.39932 13.5006 3.39932C13.6311 3.39932 13.7576 3.44397 13.8592 3.52586L24.8847 12.6084C24.9417 12.6556 25.0073 12.691 25.0779 12.7127C25.1486 12.7345 25.2228 12.7421 25.2963 12.7351C25.3699 12.7281 25.4414 12.7067 25.5067 12.6721C25.5719 12.6375 25.6298 12.5904 25.6769 12.5334L26.8721 11.0801C26.9191 11.0229 26.9544 10.9569 26.9759 10.8859C26.9974 10.815 27.0046 10.7405 26.9972 10.6667C26.9898 10.593 26.9679 10.5214 26.9327 10.4562C26.8976 10.3909 26.8499 10.3332 26.7924 10.2865Z" fill="white"/>
</svg>
