<svg width="24" height="22" viewBox="0 0 24 22" fill="none" xmlns="http://www.w3.org/2000/svg">
<path d="M8.95958 3.05313L5.2525 6.8752H1C0.4475 6.8752 0 7.33668 0 7.90645V14.0939C0 14.6633 0.4475 15.1252 1 15.1252H5.2525L8.95958 18.9473C9.58583 19.5931 10.6667 19.1393 10.6667 18.2181V3.78231C10.6667 2.8602 9.585 2.40817 8.95958 3.05313ZM18.6813 0.858285C18.2158 0.543324 17.5904 0.676098 17.285 1.15692C16.9792 1.63688 17.1092 2.28184 17.5746 2.5968C20.3358 4.46551 21.9837 7.60696 21.9837 11.0006C21.9837 14.3943 20.3358 17.5357 17.5746 19.4045C17.1092 19.719 16.9792 20.3644 17.285 20.8439C17.5783 21.3041 18.1988 21.4695 18.6813 21.1425C22.0113 18.8884 24 15.0964 24 11.0002C24 6.90399 22.0113 3.11243 18.6813 0.858285ZM20 11.0002C20 8.27039 18.6642 5.76059 16.4263 4.28676C15.96 3.97996 15.3417 4.12262 15.0462 4.60731C14.7508 5.092 14.8888 5.73352 15.355 6.04075C17.0112 7.13172 18 8.98539 18 11.0002C18 13.015 17.0112 14.8687 15.355 15.9597C14.8888 16.2664 14.7508 16.908 15.0462 17.3931C15.3175 17.8382 15.9263 18.0436 16.4263 17.7136C18.6642 16.2398 20 13.7304 20 11.0002ZM14.0929 7.69719C13.6104 7.4252 13.0017 7.60438 12.7342 8.10325C12.4679 8.60211 12.6442 9.22903 13.1279 9.50446C13.6658 9.80911 14 10.3827 14 11.0002C14 11.6181 13.6658 12.1913 13.1283 12.4959C12.6446 12.7714 12.4683 13.3983 12.7346 13.8972C13.0025 14.3982 13.6117 14.5761 14.0933 14.3032C15.2696 13.635 16.0004 12.3696 16.0004 10.9998C16.0004 9.62993 15.2696 8.36493 14.0929 7.69719Z" fill="white"/>
</svg>
